<svg width="132" height="180" xmlns="http://www.w3.org/2000/svg" xmlns:undefined="http://sodipodi.sourceforge.net/DTD/sodipodi-0.dtd" xmlns:undefined="http://www.inkscape.org/namespaces/inkscape" version="1.1">

 <g>
  <title>Layer 1</title>
  <g   id="g1">
   <g id="group-R5">
    <path fill-rule="nonzero" fill="#231f20" d="m65.99946,66.84533l7.0368,51.0508l23.12933,-38.6468l-9.81467,42.50773l24.93467,-23.85413l-12.984,31.4932l20.74533,-15.4828c-9.656,26.27867 -18.072,41.012 -53.04693,52.988l0,0l0,0c-34.97546,-11.976 -43.3912,-26.70933 -53.04693,-52.988l20.7448,15.4828l-12.98333,-31.4932l24.93333,23.85413l-9.81347,-42.50773l23.12867,38.6468l7.03693,-51.0508l-0.00053,0" id="path2"/>
    <path fill-rule="nonzero" fill="#231f20" d="m29.3604,49.74133c-10.59787,0 -16.926,-5.67067 -16.926,-15.2l0,-22.81067l8.78587,0l0,22.452c0,5.536 2.91093,8.58 8.2084,8.58c5.43173,0 8.312,-2.916 8.312,-8.42267l0,-22.60933l8.84427,0l0,22.66c0,9.47067 -6.59947,15.35067 -17.22453,15.35067" id="path3"/>
    <path fill-rule="nonzero" fill="#231f20" d="m66.3292,49.10933l-12.2704,0l0,-37.37866l12.45267,0c9.10347,0 14.11947,3.53467 14.11947,9.928c0,3.364 -1.75467,5.95333 -5.104,7.54c4.48933,1.58533 6.77067,4.55067 6.77067,8.83867c0,7.14533 -5.66667,11.072 -15.9684,11.072m-3.78133,-6.24133l3.78133,0c3.4164,0 7.47907,-0.87333 7.47907,-5.04c0,-4.29467 -4.13067,-5.208 -7.60467,-5.208l-3.65573,0l0,10.248zm0,-16.12133l3.1928,0c4.2756,0 6.64093,-1.604 6.64093,-4.512c0,-2.86 -2.06267,-4.25333 -6.29253,-4.25333l-3.5412,0l0,8.76533" id="path4"/>
    <path fill-rule="nonzero" fill="#231f20" d="m106.90693,49.74133c-12.09867,0 -19.91067,-7.55467 -19.91067,-19.27067c0,-11.57733 8.09733,-19.364 20.14933,-19.364c4.46933,0 8.22933,0.88 11.496,2.69333l0.28533,0.15867l-1.312,7.612l-0.57867,-0.38533c-3.208,-2.15467 -6.26,-3.148 -9.59333,-3.148c-7.188,0 -11.484,4.632 -11.484,12.38667c0,7.61333 4.44267,12.33867 11.60267,12.33867c3.392,0 6.73067,-1.01867 10.204,-3.10933l0.57333,-0.344l1.23867,7.1l-0.276,0.16133c-3.56667,2.04133 -7.968,3.17067 -12.39467,3.17067" id="path5"/>
    <path fill-rule="nonzero" fill="#231f20" d="m66,174.81745c-41.29173,-11.69733 -61,-38.9588 -61,-77.82293l0,-91.99453l122.00026,0l0,91.99453c0,38.86413 -19.70933,66.1256 -61.00026,77.82293zm-66,-174.81746l0,97.62013c0,41.02653 22.3224,70.73066 66,82.3796c43.67626,-11.64893 66.00026,-41.35306 66.00026,-82.3796l0,-97.62013l-132.00026,0" id="path6"/>
    <path fill-rule="nonzero" fill="#231f20" d="m66.00213,62.34933c9.20213,0 10.44747,3.73333 17.85947,3.688c7.38533,0.04533 8.65067,-3.688 17.85333,-3.688c9.20267,0 10.46933,3.73333 17.86,3.688l0,-8.572c-7.39067,0.05067 -8.65733,-3.63733 -17.86,-3.63733c-9.20267,0 -10.468,3.688 -17.85333,3.63733c-7.412,0.05067 -8.65733,-3.63733 -17.85947,-3.63733c-9.20427,0 -10.448,3.688 -17.86,3.63733c-7.3848,0.05067 -8.65147,-3.63733 -17.85413,-3.63733c-9.20307,0 -10.474,3.688 -17.8588,3.63733l0,8.572c7.3848,0.04533 8.65573,-3.688 17.8588,-3.688c9.20267,0 10.46933,3.73333 17.85413,3.688c7.412,0.04533 8.65573,-3.688 17.86,-3.688" id="path7"/>
    <path fill-rule="nonzero" fill="#231f20" d="m71.83226,77.83733c4.44,1.06133 6.55333,3.0896 12.02933,3.05573c7.38533,0.04627 8.65067,-3.68773 17.85333,-3.68773c9.20267,0 10.46933,3.734 17.86,3.68773l0,-8.5704c-7.39067,0.04933 -8.65733,-3.63733 -17.86,-3.63733c-9.20267,0 -10.468,3.68667 -17.85333,3.63733c-5.95067,0.04 -7.92933,-2.328 -13.23867,-3.264l1.20933,8.77867" id="path8"/>
    <path fill-rule="nonzero" fill="#231f20" d="m48.14266,80.89306c5.474,0.03387 7.58653,-1.99307 12.024,-3.05573l1.20987,-8.77733c-5.3068,0.936 -7.28533,3.30267 -13.23387,3.26267c-7.38533,0.04933 -8.652,-3.63733 -17.85467,-3.63733c-9.20307,0 -10.474,3.68667 -17.8588,3.63733l0,8.5704c7.3848,0.04627 8.65573,-3.68773 17.8588,-3.68773c9.20267,0 10.46933,3.734 17.85467,3.68773" id="path9"/>
    <path fill-rule="nonzero" fill="#231f20" d="m73.96693,93.31746c2.51067,0.86253 4.44,1.9172 7.42133,2.29173l5.14533,-8.59587c-0.804,0.10933 -1.68267,0.17187 -2.672,0.16507c-5.092,0.03333 -7.27333,-1.69573 -11.124,-2.7812l1.22933,8.92027" id="path10"/>
    <path fill-rule="nonzero" fill="#231f20" d="m97.52693,92.36799c1.20267,-0.1896 2.57067,-0.3068 4.188,-0.3068c9.20267,0 10.46933,3.73333 17.86,3.68813l0,-8.57093c-7.39067,0.04947 -8.65733,-3.63853 -17.86,-3.63853c-0.77733,0 -1.49467,0.02973 -2.168,0.0776l-2.02,8.75053" id="path11"/>
    <path fill-rule="nonzero" fill="#231f20" d="m34.47293,92.36799l-2.02027,-8.75053c-0.672,-0.04787 -1.3876,-0.0776 -2.16467,-0.0776c-9.20307,0 -10.474,3.688 -17.8588,3.63853l0,8.57093c7.3848,0.0452 8.65573,-3.68813 17.8588,-3.68813c1.6156,0 2.9828,0.1172 4.18493,0.3068" id="path12"/>
    <path fill-rule="nonzero" fill="#231f20" d="m50.61093,95.60919c2.9828,-0.37293 4.912,-1.42653 7.42187,-2.29067l1.2292,-8.92133c-3.848,1.08693 -6.02973,2.81453 -11.11933,2.7812c-0.99213,0.0068 -1.87133,-0.05573 -2.67653,-0.16667l5.1448,8.59747" id="path13"/>
   </g>
  </g>
 </g>
</svg>